<svg width="19" height="19" viewBox="0 0 19 19" fill="none" xmlns="http://www.w3.org/2000/svg">
<path d="M19 4.15625V5.9375H0V4.15625C0 3.17656 0.801562 2.375 1.78125 2.375H2.96875V1.48438C2.96875 0.653125 3.62188 0 4.45312 0C5.28438 0 5.9375 0.653125 5.9375 1.48438V2.375H13.0625V1.48438C13.0625 0.653125 13.7156 0 14.5469 0C15.3781 0 16.0312 0.653125 16.0312 1.48438V2.375H17.2188C18.1984 2.375 19 3.17656 19 4.15625ZM0 8.01562H19V17.2188C19 18.1984 18.1984 19 17.2188 19H1.78125C0.801562 19 0 18.1984 0 17.2188V8.01562ZM12.4688 11.875C12.4688 12.2016 12.7359 12.4688 13.0625 12.4688H14.25C14.5766 12.4688 14.8438 12.2016 14.8438 11.875V10.6875C14.8438 10.3609 14.5766 10.0938 14.25 10.0938H13.0625C12.7359 10.0938 12.4688 10.3609 12.4688 10.6875V11.875ZM8.3125 11.875C8.3125 12.2016 8.57969 12.4688 8.90625 12.4688H10.0938C10.4203 12.4688 10.6875 12.2016 10.6875 11.875V10.6875C10.6875 10.3609 10.4203 10.0938 10.0938 10.0938H8.90625C8.57969 10.0938 8.3125 10.3609 8.3125 10.6875V11.875ZM8.3125 16.0312C8.3125 16.3578 8.57969 16.625 8.90625 16.625H10.0938C10.4203 16.625 10.6875 16.3578 10.6875 16.0312V14.8438C10.6875 14.5172 10.4203 14.25 10.0938 14.25H8.90625C8.57969 14.25 8.3125 14.5172 8.3125 14.8438V16.0312ZM4.15625 11.875C4.15625 12.2016 4.42344 12.4688 4.75 12.4688H5.9375C6.26406 12.4688 6.53125 12.2016 6.53125 11.875V10.6875C6.53125 10.3609 6.26406 10.0938 5.9375 10.0938H4.75C4.42344 10.0938 4.15625 10.3609 4.15625 10.6875V11.875ZM4.15625 16.0312C4.15625 16.3578 4.42344 16.625 4.75 16.625H5.9375C6.26406 16.625 6.53125 16.3578 6.53125 16.0312V14.8438C6.53125 14.5172 6.26406 14.25 5.9375 14.25H4.75C4.42344 14.25 4.15625 14.5172 4.15625 14.8438V16.0312Z" fill="currentColor"/>
</svg>
