<svg width="25" height="5" viewBox="0 0 25 5" fill="none" xmlns="http://www.w3.org/2000/svg">
<path fill-rule="evenodd" clip-rule="evenodd" d="M0 1C0 0.447715 0.447715 0 1 0H4C4.55228 0 5 0.447715 5 1V4C5 4.55228 4.55228 5 4 5H1C0.447715 5 0 4.55228 0 4V1ZM10 1C10 0.447715 10.4477 0 11 0H14C14.5523 0 15 0.447715 15 1V4C15 4.55228 14.5523 5 14 5H11C10.4477 5 10 4.55228 10 4V1ZM21 0C20.4477 0 20 0.447715 20 1V4C20 4.55228 20.4477 5 21 5H24C24.5523 5 25 4.55228 25 4V1C25 0.447715 24.5523 0 24 0H21Z" fill="currentColor"/>
</svg>
