<svg width="21" height="21" viewBox="0 0 21 21" fill="none" xmlns="http://www.w3.org/2000/svg">
<path d="M17.0625 15.0938H7.21875C6.66094 15.0938 6.13594 14.7328 5.97188 14.175L2.32969 2.625H1.3125C0.590625 2.625 0 2.03437 0 1.3125C0 0.590625 0.590625 0 1.3125 0H3.28125C3.83906 0 4.36406 0.360937 4.52813 0.91875L5.47969 3.9375H19.6875C20.4094 3.9375 21 4.52812 21 5.25C21 5.38125 20.9672 5.5125 20.9344 5.64375L18.3094 14.175C18.1453 14.7328 17.6531 15.0938 17.0625 15.0938ZM6.5625 19.0312C6.5625 20.1141 7.44844 21 8.53125 21C9.61406 21 10.5 20.1141 10.5 19.0312C10.5 17.9484 9.61406 17.0625 8.53125 17.0625C7.44844 17.0625 6.5625 17.9484 6.5625 19.0312ZM13.7812 19.0312C13.7812 20.1141 14.6672 21 15.75 21C16.8328 21 17.7188 20.1141 17.7188 19.0312C17.7188 17.9484 16.8328 17.0625 15.75 17.0625C14.6672 17.0625 13.7812 17.9484 13.7812 19.0312Z" fill="currentColor"/>
</svg>
