<svg width="23" height="23" viewBox="0 0 23 23" fill="none" xmlns="http://www.w3.org/2000/svg">
<path d="M10.6364 22.6325L22.6364 10.6346C23.1212 10.1498 23.1212 9.39235 22.6364 8.90759L20.0606 6.36256C19.1212 7.3018 17.5758 7.3018 16.6364 6.36256C15.697 5.42333 15.697 3.87813 16.6364 2.9389L14.0606 0.363575C13.5758 -0.121192 12.8182 -0.121192 12.3333 0.363575L0.363636 12.3616C-0.121212 12.8463 -0.121212 13.6038 0.363636 14.0885L2.93939 16.6639C3.87879 15.7246 5.42424 15.7246 6.36364 16.6639C7.30303 17.6031 7.30303 19.1483 6.36364 20.0875L8.93939 22.6628C9.39394 23.1173 10.1818 23.1173 10.6364 22.6325ZM11.2121 8.36155L12.3636 7.2109L15.7879 10.6346L14.6364 11.7852L11.2121 8.36155Z" fill="currentColor"/>
</svg>
